<svg id="visual" viewBox="0 0 900 600" width="900" height="600" xmlns="http://www.w3.org/2000/svg" xmlns:xlink="http://www.w3.org/1999/xlink" version="1.1"><rect x="0" y="0" width="900" height="600" fill="#002233"></rect><path d="M766 600L774.7 585.7C783.3 571.3 800.7 542.7 803 514.2C805.3 485.7 792.7 457.3 790.8 428.8C789 400.3 798 371.7 787.5 343C777 314.3 747 285.7 735.7 257C724.3 228.3 731.7 199.7 743 171.2C754.3 142.7 769.7 114.3 780.2 85.8C790.7 57.3 796.3 28.7 799.2 14.3L802 0L900 0L900 14.3C900 28.7 900 57.3 900 85.8C900 114.3 900 142.7 900 171.2C900 199.7 900 228.3 900 257C900 285.7 900 314.3 900 343C900 371.7 900 400.3 900 428.8C900 457.3 900 485.7 900 514.2C900 542.7 900 571.3 900 585.7L900 600Z" fill="#0066FF" stroke-linecap="round" stroke-linejoin="miter"></path></svg>