<svg id="visual" viewBox="0 0 900 600" width="900" height="600" xmlns="http://www.w3.org/2000/svg" xmlns:xlink="http://www.w3.org/1999/xlink" version="1.1"><path d="M854 600L847.3 591.7C840.7 583.3 827.3 566.7 818.3 550C809.3 533.3 804.7 516.7 809.8 500C815 483.3 830 466.7 831.7 450C833.3 433.3 821.7 416.7 811.3 400C801 383.3 792 366.7 792.2 350C792.3 333.3 801.7 316.7 810 300C818.3 283.3 825.7 266.7 830.2 250C834.7 233.3 836.3 216.7 839.8 200C843.3 183.3 848.7 166.7 843 150C837.3 133.3 820.7 116.7 815.5 100C810.3 83.3 816.7 66.7 817.2 50C817.7 33.3 812.3 16.7 809.7 8.3L807 0L900 0L900 8.3C900 16.7 900 33.3 900 50C900 66.7 900 83.3 900 100C900 116.7 900 133.3 900 150C900 166.7 900 183.3 900 200C900 216.7 900 233.3 900 250C900 266.7 900 283.3 900 300C900 316.7 900 333.3 900 350C900 366.7 900 383.3 900 400C900 416.7 900 433.3 900 450C900 466.7 900 483.3 900 500C900 516.7 900 533.3 900 550C900 566.7 900 583.3 900 591.7L900 600Z" fill="#0066FF" stroke-linecap="round" stroke-linejoin="miter"></path></svg>